#N canvas 1923 36 625 1000 12;
#X obj 147 211 loadbang;
#X obj 147 236 f \$1;
#X obj 147 261 expr if($f1 == 0 \, 2 \, $f1);
#X obj 177 311 inlet;
#X msg 147 286 interval \$1;
#X obj 177 336 route interval;
#X obj 292 361 expr ($f1 - 8192) / 8191;
#X obj 292 386 clip -1 1;
#X obj 267 446 *;
#X obj 292 411 t b f;
#X obj 292 336 inlet;
#X obj 267 471 t b f;
#X obj 221 545 outlet;
#X obj 221 520 +;
#X connect 0 0 1 0;
#X connect 1 0 2 0;
#X connect 2 0 4 0;
#X connect 3 0 5 0;
#X connect 4 0 5 0;
#X connect 5 0 8 0;
#X connect 5 1 13 0;
#X connect 6 0 7 0;
#X connect 7 0 9 0;
#X connect 8 0 11 0;
#X connect 9 0 8 0;
#X connect 9 1 8 1;
#X connect 10 0 6 0;
#X connect 11 0 13 0;
#X connect 11 1 13 1;
#X connect 13 0 12 0;
