#N canvas 1286 36 1262 1000 12;
#X obj 187 137 inlet~;
#X obj 188 192 outlet~;
#X floatatom 381 105 7 0 1 0 - - - 0;
#X obj 381 74 inlet;
#X obj 381 135 expr pow(2 \, $f1 - 1);
#X obj 188 165 expr~ round($v1 * $f2) / $f2;
#X text 95 138 audio signal;
#X text 225 73 number of bits (1–32);
#X connect 0 0 5 0;
#X connect 2 0 4 0;
#X connect 3 0 2 0;
#X connect 4 0 5 1;
#X connect 5 0 1 0;
