#N canvas 1710 36 838 1000 12;
#X obj 188 135 inlet~;
#X obj 188 186 outlet~;
#X floatatom 381 111 7 1 24 0 number\ of\ bits\ (0.51-24) - - 0;
#X obj 381 61 inlet;
#X obj 381 135 expr pow(2 \, $f1 - 1);
#X obj 188 160 expr~ round($v1 * $f2) / $f2;
#X obj 316 61 loadbang;
#X obj 381 86 clip 0.51 24;
#X connect 0 0 5 0;
#X connect 2 0 4 0;
#X connect 3 0 7 0;
#X connect 4 0 5 1;
#X connect 5 0 1 0;
#X connect 6 0 7 0;
#X connect 7 0 2 0;
