#N canvas 1923 36 625 1000 12;
#X obj 89 323 cos~;
#X obj 89 298 osc~;
#X obj 90 387 outlet~;
#X obj 88 199 inlet~;
#X obj 208 229 inlet;
#X obj 259 273 osc~;
#X obj 430 285 inlet;
#X obj 18 45 cnv 1 590 1 empty empty empty 8 12 0 13 #000000 #000000 0;
#X text 31 13 [coolbass~] - cool bassy sound.;
#X floatatom 430 335 5 -1 1 0 - - - 0;
#X obj 430 310 clip -1 1;
#X obj 90 362 expr~ ($f3+1)*(pow($v1 \, 2)-0.5) - 0.5*($f3-1)*$v2;
#X text 32 103 Third inlet – tone \, from -1 (pure sine wave) to 1 (pure cool bassy sound)., f 78;
#X text 32 82 Second inlet — phase reset., f 78;
#X text 32 62 First inlet — frequency., f 78;
#X obj 89 273 /~ 4;
#X connect 0 0 11 0;
#X connect 1 0 0 0;
#X connect 3 0 5 0;
#X connect 3 0 15 0;
#X connect 4 0 1 1;
#X connect 4 0 5 1;
#X connect 5 0 11 1;
#X connect 6 0 10 0;
#X connect 9 0 11 2;
#X connect 10 0 9 0;
#X connect 11 0 2 0;
#X connect 15 0 1 0;
