#N canvas 861 36 837 1000 12;
#X floatatom 280 420 5 1 6 0 - - - 0;
#X msg 280 444 pw \$1;
#X msg 380 465 curve inout;
#N canvas 1710 36 838 1000 \$0-write-array 1;
#X obj 129 185 until;
#X obj 129 212 f;
#X obj 168 205 + 1;
#X obj 215 199 sel 0;
#X obj 129 152 t b;
#X obj 130 299 pack f f;
#X obj 129 127 r \$0-params;
#X obj 130 324 s \$0-val_index;
#X obj 110 269 / 1000;
#X obj 168 231 mod 1001;
#X obj 343 157 unpack f f;
#X obj 294 199 r \$0-params;
#X obj 343 132 r \$0-val_index;
#X obj 294 249 tabwrite \$0-curve;
#X obj 294 224 pwrcurve 2 in;
#X obj 294 279 loadbang;
#X obj 294 304 f 2;
#X obj 294 329 s \$0-power;
#X connect 0 0 1 0;
#X connect 1 0 2 0;
#X connect 1 0 5 1;
#X connect 1 0 8 0;
#X connect 2 0 9 0;
#X connect 3 0 0 1;
#X connect 4 0 0 0;
#X connect 5 0 7 0;
#X connect 6 0 4 0;
#X connect 8 0 5 0;
#X connect 9 0 1 1;
#X connect 9 0 3 0;
#X connect 10 0 14 0;
#X connect 10 1 13 1;
#X connect 11 0 14 0;
#X connect 12 0 10 0;
#X connect 14 0 13 0;
#X connect 15 0 16 0;
#X connect 16 0 17 0;
#X restore 25 563 pd \$0-write-array;
#X obj 320 505 s \$0-params;
#X obj 283 395 hsl 170 20 0.125 8 0 0 empty \$0-power power -2 -10 0 12 #fcfcfc #000000 #000000 0 0;
#N canvas 0 50 450 250 (subpatch) 0;
#X array \$0-curve 1001 float 4;
#X coords 0 1 1000 0 200 200 1 0 0;
#X restore 25 363 graph;
#X msg 380 425 curve in;
#X msg 380 445 curve out;
#X floatatom 243 79 5 1 6 0 - - - 0;
#X msg 243 103 pw \$1;
#X msg 243 170 curve inout;
#X obj 246 54 hsl 170 20 0.1 6 0 0 empty \$0-power power -2 -10 0 12 #fcfcfc #000000 #000000 0 0;
#X msg 243 130 curve in;
#X msg 243 150 curve out;
#X obj 133 200 pwrcurve 2 in;
#X floatatom 133 225 5 0 0 0 - - - 0;
#X floatatom 48 128 5 0 0 0 - - - 0;
#X obj 51 103 hsl 170 20 0 1 0 0 empty empty value -2 -10 0 12 #fcfcfc #000000 #000000 0 0;
#X obj 136 249 hsl 170 20 0 1 0 0 empty empty empty -2 -10 0 12 #fcfcfc #000000 #000000 0 0;
#X connect 0 0 1 0;
#X connect 1 0 4 0;
#X connect 2 0 4 0;
#X connect 5 0 0 0;
#X connect 7 0 4 0;
#X connect 8 0 4 0;
#X connect 9 0 10 0;
#X connect 10 0 15 0;
#X connect 11 0 15 0;
#X connect 12 0 9 0;
#X connect 13 0 15 0;
#X connect 14 0 15 0;
#X connect 15 0 16 0;
#X connect 16 0 19 0;
#X connect 17 0 15 0;
#X connect 18 0 17 0;
#X coords 0 1000 1 999 85 60 0;
