#N canvas 1923 36 625 1000 12;
#X obj 137 290 onevoice;
#X obj 137 260 notein 1 1;
#X msg 220 338 \$1 10 0.01;
#X obj 220 363 line~;
#X obj 132 490 *~;
#X obj 104 398 line~;
#X obj 104 423 mtof~;
#X obj 75 346 bend 2;
#X obj 133 519 output~;
#X msg 104 373 \$1 1 0.001;
#X obj 104 448 phasor~;
#X obj 220 313 expr if($f1 != 0 \, 127 \, 0);
#X obj 131 319 bendin 1;
#X text 25 109 INLETS, f 65;
#X text 25 131 • Note inlet (MIDI note number), f 65;
#X text 25 180 OUTLETS, f 65;
#X text 25 202 • Note outlet (MIDI note number), f 65;
#X text 25 18 bend — convert MIDI note input and bend controller input into a note output., f 65;
#X text 25 153 • Bend controller inlet (-8192 to 8191), f 65;
#X text 25 60 ARGUMENTS, f 65;
#X text 25 82 • Interval (defaults to 2 \, a major second), f 65;
#X connect 0 0 7 0;
#X connect 0 1 11 0;
#X connect 1 0 0 0;
#X connect 1 1 0 1;
#X connect 2 0 3 0;
#X connect 3 0 4 1;
#X connect 4 0 8 0;
#X connect 4 0 8 1;
#X connect 5 0 6 0;
#X connect 6 0 10 0;
#X connect 7 0 9 0;
#X connect 9 0 5 0;
#X connect 10 0 4 0;
#X connect 11 0 2 0;
#X connect 12 0 7 1;
