#N canvas 1923 36 625 1000 12;
#X obj 93 339 notein 1;
#X obj 83 571 output~;
#X obj 57 421 onevoice;
#X obj 92 496 *~;
#X obj 57 446 mtof;
#X obj 137 421 onevoice;
#X obj 172 520 *~;
#X obj 137 470 mtof;
#X obj 137 495 phasor~;
#X obj 93 379 splitkeys 60;
#X obj 57 471 phasor~;
#X obj 137 446 + 12;
#X text 25 124 INLETS, f 65;
#X text 25 168 • Velocity inlet (0 to 127), f 65;
#X text 25 146 • Note inlet (MIDI note number), f 65;
#X text 25 195 OUTLETS, f 65;
#X text 25 18 splitkeys — split MIDI keyboard input into two (effectively a wrapper around the moses object) \, at a given key., f 65;
#X text 25 217 • First note outlet (MIDI note number), f 65;
#X text 25 239 • First velocity outlet (0 to 127), f 65;
#X text 25 260 • Second note outlet (MIDI note number), f 65;
#X text 25 282 • Second velocity outlet (0 to 127), f 65;
#X text 25 60 ARGUMENTS, f 65;
#X text 25 82 • Note at which to split \, everything >= will go do right voice. Defaults to 60 (C4)., f 65;
#X msg 219 322 splitat 60;
#X msg 219 347 splitat 55;
#X text 232 373 You can also change the split point by banging these messages.;
#X connect 0 0 9 0;
#X connect 0 1 9 1;
#X connect 2 0 4 0;
#X connect 2 1 3 1;
#X connect 3 0 1 0;
#X connect 4 0 10 0;
#X connect 5 0 11 0;
#X connect 5 1 6 1;
#X connect 6 0 1 1;
#X connect 7 0 8 0;
#X connect 8 0 6 0;
#X connect 9 0 2 0;
#X connect 9 1 2 1;
#X connect 9 2 5 0;
#X connect 9 3 5 1;
#X connect 10 0 3 0;
#X connect 11 0 7 0;
#X connect 23 0 9 0;
#X connect 24 0 9 0;
