#N canvas 1032 36 498 1000 12;
#X obj 251 316 ctlin 64 1;
#X obj 163 316 notein 1 1;
#X obj 163 349 sustain;
#X msg 65 265 release;
#X obj 163 374 pack 0 0;
#X obj 163 423 route 0;
#X obj 133 473 print off;
#X obj 276 473 print on;
#X msg 163 399 \$2 \$1;
#X obj 209 448 unpack 0 0;
#X text 25 19 sustain — process MIDI notes and sustain pedal input to simulate a proper piano-style sustain., f 65;
#X text 25 61 INLETS, f 65;
#X text 25 105 • Velocity inlet (0 to 127), f 65;
#X text 25 83 • Note inlet (MIDI note number), f 65;
#X text 25 127 • Sustain pedal (== 0 is off \, != 0 is on), f 65;
#X text 25 154 OUTLETS, f 65;
#X text 25 176 • Note outlet (MIDI note number), f 65;
#X text 25 198 • Velocity outlet (0 to 127), f 65;
#X text 136 250 (we also accept a release message \, equivalent to pushing 0 to sustain pedal inlet), f 30;
#X connect 0 0 2 2;
#X connect 1 0 2 0;
#X connect 1 1 2 1;
#X connect 2 0 4 0;
#X connect 2 1 4 1;
#X connect 3 0 2 0;
#X connect 4 0 8 0;
#X connect 5 0 6 0;
#X connect 5 1 9 0;
#X connect 8 0 5 0;
#X connect 9 1 7 0;
