#N canvas 1710 36 838 1000 12;
#X obj 174 297 onevoice;
#X obj 174 267 notein 1 1;
#X obj 140 402 osc~;
#X msg 252 327 \$1 10 0.01;
#X obj 252 352 line~;
#X obj 168 454 *~;
#X msg 113 267 reset;
#X msg 140 327 \$1 10 0.01;
#X obj 140 352 line~;
#X obj 140 377 mtof~;
#X text 25 76 INLETS, f 65;
#X text 25 120 • Velocity inlet (0 to 127), f 65;
#X text 25 98 • Note inlet (MIDI note number), f 65;
#X text 25 147 OUTLETS, f 65;
#X text 25 169 • Note outlet (MIDI note number), f 65;
#X text 25 191 • Velocity outlet (0 to 127), f 65;
#X text 25 18 onevoice — convert MIDI note input into a single-voice output \, always playing the highest active note \, similar to the keyboard controllers of old monophonic analog synths., f 65;
#X obj 168 479 output~;
#X connect 0 0 7 0;
#X connect 0 1 3 0;
#X connect 1 0 0 0;
#X connect 1 1 0 1;
#X connect 2 0 5 0;
#X connect 3 0 4 0;
#X connect 4 0 5 1;
#X connect 5 0 17 0;
#X connect 5 0 17 1;
#X connect 6 0 0 0;
#X connect 7 0 8 0;
#X connect 8 0 9 0;
#X connect 9 0 2 0;
