#N canvas 1710 36 838 1000 12;
#N canvas 1669 36 454 478 row1-numeric 0;
#X obj 12 320 outlet;
#X obj 12 10 inlet;
#X obj 275 57 outlet;
#X msg 274 300 80;
#X obj 12 37 select 50 51 53 54 55 57 48 61;
#X msg 274 84 61;
#X msg 274 108 63;
#X msg 274 132 66;
#X msg 274 156 68;
#X msg 274 180 70;
#X msg 274 252 78;
#X msg 274 276 80;
#X msg 274 204 73;
#X msg 274 228 75;
#X connect 1 0 4 0;
#X connect 3 0 0 0;
#X connect 4 0 5 0;
#X connect 4 1 6 0;
#X connect 4 2 7 0;
#X connect 4 3 8 0;
#X connect 4 4 9 0;
#X connect 4 5 12 0;
#X connect 4 6 13 0;
#X connect 4 7 10 0;
#X connect 4 8 2 0;
#X connect 5 0 0 0;
#X connect 6 0 0 0;
#X connect 7 0 0 0;
#X connect 8 0 0 0;
#X connect 9 0 0 0;
#X connect 10 0 0 0;
#X connect 11 0 0 0;
#X connect 12 0 0 0;
#X connect 13 0 0 0;
#X restore 66 50 pd row1-numeric;
#N canvas 1710 36 838 1000 row2-qwerty 0;
#X obj 17 371 outlet;
#X obj 17 14 inlet;
#X obj 399 60 outlet;
#X obj 17 40 select 113 119 101 114 116 121 117 105 111 112 180 91;
#X msg 399 87 60;
#X msg 399 111 62;
#X msg 399 135 64;
#X msg 399 159 65;
#X msg 399 183 67;
#X msg 399 207 69;
#X msg 399 231 71;
#X msg 399 255 72;
#X msg 399 279 74;
#X msg 399 303 76;
#X msg 399 327 77;
#X msg 399 351 79;
#X connect 1 0 3 0;
#X connect 3 0 4 0;
#X connect 3 1 5 0;
#X connect 3 2 6 0;
#X connect 3 3 7 0;
#X connect 3 4 8 0;
#X connect 3 5 9 0;
#X connect 3 6 10 0;
#X connect 3 7 11 0;
#X connect 3 8 12 0;
#X connect 3 9 13 0;
#X connect 3 10 14 0;
#X connect 3 11 15 0;
#X connect 3 12 2 0;
#X connect 4 0 0 0;
#X connect 5 0 0 0;
#X connect 6 0 0 0;
#X connect 7 0 0 0;
#X connect 8 0 0 0;
#X connect 9 0 0 0;
#X connect 10 0 0 0;
#X connect 11 0 0 0;
#X connect 12 0 0 0;
#X connect 13 0 0 0;
#X connect 14 0 0 0;
#X connect 15 0 0 0;
#X restore 66 80 pd row2-qwerty;
#N canvas 1923 36 625 1000 row3-asdfgh 0;
#X obj 9 273 outlet;
#X obj 9 11 inlet;
#X obj 279 58 outlet;
#X obj 9 38 select 115 100 103 104 106 108 231 93;
#X msg 279 85 49;
#X msg 279 109 51;
#X msg 279 133 54;
#X msg 279 157 56;
#X msg 279 181 58;
#X msg 279 205 61;
#X msg 279 229 63;
#X msg 279 253 66;
#X connect 1 0 3 0;
#X connect 3 0 4 0;
#X connect 3 1 5 0;
#X connect 3 2 6 0;
#X connect 3 3 7 0;
#X connect 3 4 8 0;
#X connect 3 5 9 0;
#X connect 3 6 10 0;
#X connect 3 7 11 0;
#X connect 3 8 2 0;
#X connect 4 0 0 0;
#X connect 5 0 0 0;
#X connect 6 0 0 0;
#X connect 7 0 0 0;
#X connect 8 0 0 0;
#X connect 9 0 0 0;
#X connect 10 0 0 0;
#X connect 11 0 0 0;
#X restore 66 110 pd row3-asdfgh;
#N canvas 2052 36 496 1000 row4-zxcvbn 0;
#X msg 352 231 57;
#X msg 352 207 55;
#X msg 352 183 53;
#X msg 352 159 52;
#X msg 352 135 50;
#X msg 352 111 48;
#X msg 352 255 59;
#X obj 11 40 select 92 122 120 99 118 98 110 109 44 46 59 47;
#X msg 352 87 47;
#X msg 352 279 60;
#X msg 352 303 62;
#X msg 352 327 64;
#X msg 352 351 65;
#X obj 11 371 outlet;
#X obj 11 14 inlet;
#X obj 352 60 outlet;
#X connect 0 0 13 0;
#X connect 1 0 13 0;
#X connect 2 0 13 0;
#X connect 3 0 13 0;
#X connect 4 0 13 0;
#X connect 5 0 13 0;
#X connect 6 0 13 0;
#X connect 7 0 8 0;
#X connect 7 1 5 0;
#X connect 7 2 4 0;
#X connect 7 3 3 0;
#X connect 7 4 2 0;
#X connect 7 5 1 0;
#X connect 7 6 0 0;
#X connect 7 7 6 0;
#X connect 7 8 9 0;
#X connect 7 9 10 0;
#X connect 7 10 11 0;
#X connect 7 11 12 0;
#X connect 7 12 15 0;
#X connect 8 0 13 0;
#X connect 9 0 13 0;
#X connect 10 0 13 0;
#X connect 11 0 13 0;
#X connect 12 0 13 0;
#X connect 14 0 7 0;
#X restore 66 140 pd row4-zxcvbn;
#X obj 20 170 outlet;
#X obj 161 170 outlet;
#X obj 66 20 inlet;
#X connect 0 0 4 0;
#X connect 0 1 1 0;
#X connect 1 0 4 0;
#X connect 1 1 2 0;
#X connect 2 0 4 0;
#X connect 2 1 3 0;
#X connect 3 0 4 0;
#X connect 3 1 5 0;
#X connect 6 0 0 0;
