#N canvas 1542 36 498 1000 12;
#X obj 111 310 inlet~;
#X obj 294 310 inlet~;
#X obj 332 163 inlet;
#X floatatom 332 213 5 -1 1 0 - - - 0;
#X floatatom 277 286 4 0 0 0 - - - 0;
#X floatatom 94 286 4 0 0 0 - - - 0;
#X obj 94 335 *~;
#X obj 277 335 *~;
#X obj 94 360 outlet~;
#X obj 277 360 outlet~;
#X obj 18 44 cnv 1 590 1 empty empty empty 8 12 0 13 #000000 #000000 0;
#X text 32 61 First inlet — left input., f 78;
#X text 32 81 Second inlet — right input., f 78;
#X obj 332 188 clip -1 1;
#X text 32 102 Third inlet – panning (-1 = full on left channel \, 1 = full on right channel)., f 78;
#X obj 94 261 expr if($f1<=0 \, 1 \, 1-$f1);
#X obj 277 261 expr if($f1>=0 \, 1 \, 1+$f1);
#X text 31 12 [pan~] - linear panning., f 78;
#X obj 268 163 loadbang;
#X msg 268 188 0;
#X connect 0 0 6 1;
#X connect 1 0 7 1;
#X connect 2 0 13 0;
#X connect 3 0 15 0;
#X connect 3 0 16 0;
#X connect 4 0 7 0;
#X connect 5 0 6 0;
#X connect 6 0 8 0;
#X connect 7 0 9 0;
#X connect 13 0 3 0;
#X connect 15 0 5 0;
#X connect 16 0 4 0;
#X connect 18 0 19 0;
#X connect 19 0 3 0;
