#N canvas 1923 36 625 1000 12;
#X obj 190 77 hsl 170 20 0 150 0 0 empty empty empty -2 -10 0 12 #c6ffc7 #0f4710 #000000 0 0;
#X floatatom 147 78 5 0 150 0 vol - - 0;
#X obj 20 77 loadbang;
#X obj 190 102 hsl 170 20 -100 100 0 0 empty empty empty -2 -10 0 12 #c6ffc7 #0f4710 #000000 0 0;
#X obj 20 102 loadbang;
#X msg 84 102 0;
#X obj 99 468 dac~;
#X obj 71 187 inlet~;
#X obj 67 432 clip~ -1 1;
#X obj 99 397 span~;
#X obj 158 432 clip~ -1 1;
#X obj 71 231 *~;
#X obj 138 231 *~;
#X obj 139 188 inlet~;
#X obj 67 499 outlet~;
#X obj 157 499 outlet~;
#X obj 371 77 change;
#X obj 371 102 change;
#X floatatom 147 103 5 -100 100 0 pan - - 0;
#X msg 84 77 100;
#X obj 146 371 / 100;
#X obj 342 53 tgl 20 0 empty empty mute -32 10 0 12 #ffffff #000000 #000000 0 1;
#X obj 278 27 loadbang;
#X msg 342 27 0;
#X obj 196 174 r \$0-vol;
#X obj 421 53 s \$0-mute;
#X obj 421 77 s \$0-vol;
#X obj 421 102 s \$0-pan;
#X obj 146 344 r \$0-pan;
#X obj 196 256 r \$0-mute;
#X obj 196 281 expr !$i1;
#X floatatom 196 306 5 0 0 0 - - - 0;
#X floatatom 196 224 5 0 0 0 - - - 0;
#X obj 372 53 t f f;
#X obj 71 319 *~;
#X obj 138 319 *~;
#X obj 196 199 / 100;
#X connect 0 0 16 0;
#X connect 1 0 16 0;
#X connect 2 0 19 0;
#X connect 3 0 17 0;
#X connect 4 0 5 0;
#X connect 5 0 18 0;
#X connect 5 0 3 0;
#X connect 7 0 11 0;
#X connect 8 0 6 0;
#X connect 8 0 14 0;
#X connect 9 0 8 0;
#X connect 9 1 10 0;
#X connect 10 0 6 1;
#X connect 10 0 15 0;
#X connect 11 0 34 0;
#X connect 12 0 35 0;
#X connect 13 0 12 0;
#X connect 16 0 1 0;
#X connect 16 0 0 0;
#X connect 16 0 26 0;
#X connect 17 0 3 0;
#X connect 17 0 18 0;
#X connect 17 0 27 0;
#X connect 18 0 17 0;
#X connect 19 0 1 0;
#X connect 19 0 0 0;
#X connect 20 0 9 2;
#X connect 21 0 33 0;
#X connect 22 0 23 0;
#X connect 23 0 21 0;
#X connect 24 0 36 0;
#X connect 28 0 20 0;
#X connect 29 0 30 0;
#X connect 30 0 31 0;
#X connect 30 0 35 1;
#X connect 30 0 34 1;
#X connect 33 0 25 0;
#X connect 34 0 9 0;
#X connect 35 0 9 1;
#X connect 36 0 32 0;
#X connect 36 0 11 1;
#X connect 36 0 12 1;
#X coords 0 -1 1 1 245 75 1 120 50;
