#N canvas 1542 36 498 1000 12;
#X obj 243 83 pack 0 0;
#X obj 169 33 inlet;
#X obj 296 58 inlet;
#X obj 251 133 tabwrite \$0active_notes;
#X msg 251 108 \$2 \$1;
#X obj 243 158 t b;
#X obj 243 208 until;
#X obj 243 233 f;
#X obj 296 225 + 1;
#X obj 343 219 sel 0;
#X obj 296 250 mod 128;
#X obj 243 233;
#X obj 243 275 expr 127 - $i1;
#X obj 282 300 tabread \$0active_notes;
#X obj 243 324 spigot;
#X msg 210 245 0;
#X obj 243 183 del 0;
#X obj 243 349 pack 0 0;
#X obj 210 221 t b;
#X obj 243 374 unpack 0 0;
#X obj 243 399 change;
#X obj 310 399 change;
#X obj 243 424 outlet;
#X obj 310 424 outlet;
#X msg 25 222 const 0;
#X obj 25 247 send \$0active_notes;
#X obj 32 424 table \$0active_notes 128;
#X obj 169 58 route reset;
#X msg 169 324 0;
#X connect 0 0 4 0;
#X connect 0 0 5 0;
#X connect 1 0 27 0;
#X connect 2 0 0 1;
#X connect 4 0 3 0;
#X connect 5 0 16 0;
#X connect 6 0 7 0;
#X connect 6 0 11 0;
#X connect 7 0 8 0;
#X connect 7 0 12 0;
#X connect 8 0 10 0;
#X connect 9 0 6 1;
#X connect 9 0 28 0;
#X connect 10 0 7 1;
#X connect 10 0 9 0;
#X connect 12 0 13 0;
#X connect 12 0 14 0;
#X connect 13 0 14 1;
#X connect 13 0 17 1;
#X connect 14 0 17 0;
#X connect 15 0 7 0;
#X connect 16 0 6 0;
#X connect 17 0 18 0;
#X connect 17 0 19 0;
#X connect 18 0 6 1;
#X connect 18 0 15 0;
#X connect 19 0 20 0;
#X connect 19 1 21 0;
#X connect 20 0 22 0;
#X connect 21 0 23 0;
#X connect 24 0 25 0;
#X connect 27 0 24 0;
#X connect 27 0 28 0;
#X connect 27 1 0 0;
#X connect 28 0 21 0;
