#N canvas 1923 36 625 1000 12;
#N canvas 0 50 450 250 (subpatch) 0;
#X array \$0-display 200 float 4;
#X coords 0 -1 199 1 400 150 1 0 0;
#X restore 0 30 graph;
#X obj 375 6 tgl 20 1 empty empty enabled -54 10 0 12 #fcfcfc #000000 #000000 1 1;
#X obj 23 229 inlet~;
#X obj 25 325 tabwrite~ \$0-display;
#X obj 38 297 metro 20;
#X connect 1 0 4 0;
#X connect 2 0 3 0;
#X connect 4 0 3 0;
#X coords 0 -1 1 1 400 180 1 0 0;
