#N canvas 1710 36 838 1000 12;
#X obj 76 290 inlet~;
#X obj 156 290 inlet~;
#X obj 182 153 inlet;
#X floatatom 182 178 5 -1 1 0 pan - - 0;
#X floatatom 139 266 4 0 0 0 - - - 0;
#X floatatom 59 266 4 0 0 0 - - - 0;
#X obj 59 241 cos;
#X obj 139 241 sin;
#X obj 182 203 expr ($f1 + 1) * atan(1);
#X obj 59 315 *~;
#X obj 139 315 *~;
#X obj 59 340 outlet~;
#X obj 139 340 outlet~;
#X obj 18 44 cnv 1 590 1 empty empty empty 8 12 0 13 #000000 #000000 0;
#X text 32 61 First inlet — left input., f 78;
#X text 32 81 Second inlet — right input., f 78;
#X text 31 12 [pan~] - sine-law panning., f 78;
#X text 32 102 Third inlet – panning (-1 = full on left channel \, 1 full on right channel)., f 78;
#X connect 0 0 9 1;
#X connect 1 0 10 1;
#X connect 2 0 3 0;
#X connect 3 0 8 0;
#X connect 4 0 10 0;
#X connect 5 0 9 0;
#X connect 6 0 5 0;
#X connect 7 0 4 0;
#X connect 8 0 6 0;
#X connect 8 0 7 0;
#X connect 9 0 11 0;
#X connect 10 0 12 0;
