#N canvas 0 0 2560 1048 12;
#X obj 90 173 loadbang;
#X obj 190 379 route in out inout;
#X obj 236 295 t b f;
#X obj 96 113 route pw curve;
#X obj 54 223 s \$0-pw \$1;
#X obj 165 223 s \$0-curve;
#X obj 96 88 inlet;
#X obj 191 163 s \$0-value;
#X obj 236 268 r \$0-value;
#X obj 147 299 r \$0-curve;
#X obj 75 198 f \$1;
#X obj 170 198 symbol \$2;
#X obj 330 484 s \$0-curve_in;
#X obj 330 459 s \$0-curve_out;
#X obj 330 434 s \$0-curve_inout;
#X obj 330 409 s \$0-curve_invalid;
#X obj 358 92 r \$0-curve_in;
#X obj 358 142 pow;
#X obj 463 92 r \$0-curve_out;
#X obj 190 329 pack s f f;
#X obj 315 268 r \$0-pw;
#X obj 315 293 t b f;
#X msg 190 354 \$1 \$2 \$3;
#X obj 358 117 unpack f f;
#X obj 463 208 outlet;
#X obj 564 386 r \$0-curve_invalid;
#X obj 564 411 print curve_invalid;
#X obj 358 142;
#X obj 463 117 unpack f f;
#X obj 463 142 expr 1 - pow(1 - $f1 \, $f2);
#X obj 664 119 unpack f f;
#X obj 664 94 r \$0-curve_inout;
#X obj 664 144 expr if($f1 < 0.5 \, pow($f1 \, $f2) * pow(2 \, $f2 - 1) \, 1 - pow(1 - $f1 \, $f2) * pow(2 \, $f2 - 1)), f 51;
#X obj 191 138 clip 0 1;
#X connect 0 0 10 0;
#X connect 0 0 11 0;
#X connect 1 0 12 0;
#X connect 1 1 13 0;
#X connect 1 2 14 0;
#X connect 1 3 15 0;
#X connect 2 0 19 0;
#X connect 2 1 19 1;
#X connect 3 0 4 0;
#X connect 3 1 5 0;
#X connect 3 2 33 0;
#X connect 6 0 3 0;
#X connect 8 0 2 0;
#X connect 9 0 19 0;
#X connect 10 0 4 0;
#X connect 11 0 5 0;
#X connect 16 0 23 0;
#X connect 17 0 24 0;
#X connect 18 0 28 0;
#X connect 19 0 22 0;
#X connect 20 0 21 0;
#X connect 21 0 19 0;
#X connect 21 1 19 2;
#X connect 22 0 1 0;
#X connect 23 0 17 0;
#X connect 23 0 27 0;
#X connect 23 1 17 1;
#X connect 25 0 26 0;
#X connect 28 0 29 0;
#X connect 28 1 29 1;
#X connect 29 0 24 0;
#X connect 30 0 32 0;
#X connect 30 1 32 1;
#X connect 31 0 30 0;
#X connect 32 0 24 0;
#X connect 33 0 7 0;
