#N canvas 0 0 2560 1048 12;
#X floatatom 223 217 5 0 1000 0 freq - - 0;
#X obj 237 244 osc~;
#X obj 195 332 *~;
#X obj 169 370 *~;
#X obj 132 307 inlet~;
#X obj 174 269 inlet~;
#X obj 147 420 outlet~;
#X obj 226 420 outlet~;
#X obj 243 190 inlet;
#X obj 289 276 expr~ ($v1 - 1) * 0.5;
#X obj 267 312 expr~ (-$v1 - 1) * 0.5;
#X obj 18 44 cnv 1 590 1 empty empty empty 8 12 0 13 #000000 #000000 0;
#X text 31 12 [rotary~] - stereo amp modulation with 90° phase offset betwen channels., f 78;
#X text 32 61 First inlet — left input., f 78;
#X text 32 81 Second inlet — right input., f 78;
#X text 32 102 Third inlet – frequency., f 78;
#X obj 203 165 bang;
#X msg 203 190 0;
#X obj 276 216 inlet;
#X text 32 123 Fourth inlet – phase reset., f 78;
#X connect 0 0 1 0;
#X connect 1 0 9 0;
#X connect 1 0 10 0;
#X connect 2 0 7 0;
#X connect 3 0 6 0;
#X connect 4 0 3 0;
#X connect 5 0 2 0;
#X connect 8 0 0 0;
#X connect 9 0 2 1;
#X connect 10 0 3 1;
#X connect 16 0 17 0;
#X connect 17 0 0 0;
#X connect 18 0 1 1;
