#N canvas 1923 36 625 1000 12;
#X obj 135 285 ctlin;
#X obj 135 352 spigot;
#X obj 135 622 line;
#X obj 135 377 / 127;
#X obj 135 647 outlet;
#X obj 18 44 cnv 1 590 1 empty empty empty 8 12 0 13 #000000 #000000 0;
#X text 31 12 [smoothctl] - linearly-interpolated MIDI control input., f 78;
#X text 32 61 ARGS, f 78;
#X text 46 81 integer – control number, f 76;
#X text 46 101 integer – channel number, f 76;
#X text 32 209 OUTLETS, f 78;
#X text 46 229 control – value between 0 and 1, f 76;
#X obj 174 328 expr $i1 == \$1 && $i2 == \$2;
#X msg 135 597 \$1 100 0.01;
#X obj 135 452 route linear easein easeout;
#X obj 135 402 list prepend \$3;
#X msg 135 427 \$1 \$2;
#X text 46 122 symbol – easing function: linear \, easein \, easeout, f 76;
#X text 67 143 linear — map function f(x) = x, f 73;
#X text 67 164 easein — map function f(x) = 1 - sqrt(1 - x²), f 73;
#X text 67 185 easeout — map function f(x) = sqrt(1 - (x - 1)²), f 73;
#X obj 259 512 easing.easeoutcirc;
#X obj 197 572 easing.easeincirc;
#X connect 0 0 1 0;
#X connect 0 1 12 0;
#X connect 0 2 12 1;
#X connect 1 0 3 0;
#X connect 2 0 4 0;
#X connect 3 0 15 0;
#X connect 12 0 1 1;
#X connect 13 0 2 0;
#X connect 14 0 13 0;
#X connect 14 1 22 0;
#X connect 14 2 21 0;
#X connect 15 0 16 0;
#X connect 16 0 14 0;
#X connect 21 0 13 0;
#X connect 22 0 13 0;
