#N canvas 1286 548 1262 488 12;
#X obj 167 340 inlet~;
#X obj 267 340 inlet~;
#X obj 285 161 inlet;
#X floatatom 285 211 9 -1 1 0 - - - 0;
#X floatatom 250 316 13 0 0 0 - - - 0;
#X floatatom 150 316 13 0 0 0 - - - 0;
#X obj 150 291 cos;
#X obj 250 291 sin;
#X obj 150 405 *~;
#X obj 250 405 *~;
#X obj 150 430 outlet~;
#X obj 250 430 outlet~;
#X obj 18 44 cnv 1 590 1 empty empty empty 8 12 0 13 #000000 #000000 0;
#X text 32 61 First inlet — left input., f 78;
#X text 32 81 Second inlet — right input., f 78;
#X obj 285 186 clip -1 1;
#X text 32 102 Third inlet – panning (-1 = full on left channel \, 1 = full on right channel)., f 78;
#X obj 285 236 expr ($f1 + 1) * atan(1);
#X obj 220 161 loadbang;
#X msg 250 186 0;
#X text 31 12 [span~] - sine-law panning., f 78;
#X connect 0 0 8 1;
#X connect 1 0 9 1;
#X connect 2 0 15 0;
#X connect 3 0 17 0;
#X connect 4 0 9 0;
#X connect 5 0 8 0;
#X connect 6 0 5 0;
#X connect 7 0 4 0;
#X connect 8 0 10 0;
#X connect 9 0 11 0;
#X connect 15 0 3 0;
#X connect 17 0 7 0;
#X connect 17 0 6 0;
#X connect 18 0 19 0;
#X connect 19 0 3 0;
