#N canvas 1923 36 625 1000 12;
#X obj 23 90 inlet;
#X obj 174 138 inlet;
#X obj 121 201 pack 0 0;
#X obj 89 155 moses;
#X obj 121 10 loadbang;
#X obj 121 60 expr if($i1 == 0 \, 60 \, $i1);
#X obj 33 115 route splitat;
#X msg 121 85 splitat \$1;
#X obj 36 201 pack 0 0;
#X obj 36 226 unpack 0 0;
#X obj 121 226 unpack 0 0;
#X obj 8 251 outlet;
#X obj 121 251 outlet;
#X obj 64 251 outlet;
#X obj 177 251 outlet;
#X obj 121 35 f \$1;
#X connect 0 0 6 0;
#X connect 1 0 2 1;
#X connect 1 0 8 1;
#X connect 2 0 10 0;
#X connect 3 0 8 0;
#X connect 3 1 2 0;
#X connect 4 0 15 0;
#X connect 5 0 7 0;
#X connect 6 0 3 1;
#X connect 6 1 3 0;
#X connect 7 0 6 0;
#X connect 8 0 9 0;
#X connect 9 0 11 0;
#X connect 9 1 13 0;
#X connect 10 0 12 0;
#X connect 10 1 14 0;
#X connect 15 0 5 0;
