#N canvas 1542 36 594 1000 12;
#X obj 4 136 cnv 20 210 125 empty empty non-sustained\ input\ (bypass) 4 8 0 12 #c6ffc7 #404040 0;
#X obj 8 155 r \$0note;
#X obj 83 155 r \$0sustain_pedal;
#X obj 8 210 spigot;
#X obj 8 235 s \$0output;
#X obj 83 180 == 0;
#X obj 4 5 cnv 20 495 125 empty empty inlets\ &\ outlets 4 8 0 12 #e3c6ff #404040 0;
#X obj 379 77 unpack 0 0;
#X obj 379 102 outlet;
#X obj 446 102 outlet;
#X obj 379 52 r \$0output;
#X obj 138 77 pack 0 0;
#X obj 243 77 != 0;
#X obj 287 52 loadbang;
#X obj 287 77 f 0;
#X obj 243 102 s \$0sustain_pedal;
#X obj 138 102 s \$0note;
#X obj 10 27 inlet;
#X obj 191 52 inlet;
#X obj 243 52 inlet;
#X obj 4 267 cnv 20 210 350 empty empty save\ notes\ to\ internal\ tables 4 8 0 12 #feffc6 #404040 0;
#X msg 21 316 \$2 \$1;
#X obj 21 366 tabwrite \$0active_notes;
#X obj 11 291 r \$0note;
#X obj 11 591 tabwrite \$0sustained_notes;
#X obj 50 416 r \$0sustain_pedal;
#X obj 11 391 unpack f f;
#X obj 50 491 tabread \$0active_notes;
#X obj 11 466 spigot;
#X obj 50 441 != 0;
#X obj 21 341 pipe f f 0;
#X obj 11 540 pack 0 0;
#X msg 11 566 \$2 \$1;
#X obj 50 516 expr if($i1!=0 \, 64 \, 0);
#X obj 220 432 cnv 20 280 335 empty empty noteoffs\ on\ pedal\ release 4 8 0 12 #ffc7c6 #404040 0;
#X obj 226 552 until;
#X obj 226 577 f;
#X obj 279 569 + 1;
#X obj 326 563 sel 0;
#X obj 226 688 spigot;
#X obj 246 663 != 0;
#X obj 279 594 mod 128;
#X obj 226 527 spigot;
#X obj 226 502 t b f;
#X obj 226 477 == 0;
#X obj 226 452 r \$0sustain_pedal;
#X obj 246 638 tabread \$0sustained_notes;
#X obj 226 577;
#X obj 226 738 s \$0output;
#X msg 226 713 \$1 0;
#X msg 336 588 const 0;
#X obj 336 613 send \$0sustained_notes;
#X obj 220 136 cnv 20 280 290 empty empty sustained\ input 4 8 0 12 #c6feff #404040 0;
#X obj 224 155 r \$0note;
#X obj 299 155 r \$0sustain_pedal;
#X obj 224 210 spigot;
#X obj 224 400 s \$0output;
#X obj 299 180 != 0;
#X obj 234 235 unpack f f;
#X obj 301 262 != 0;
#X obj 224 325 spigot;
#X obj 224 350 pipe f f 0;
#X obj 224 375 pack 0 0;
#X obj 301 292 tabread \$0sustained_notes;
#X obj 303 350 spigot;
#X obj 301 317 != 0;
#X msg 303 375 \$1 0;
#X obj 11 713 table \$0active_notes 128;
#X obj 11 738 table \$0sustained_notes 128;
#X obj 10 52 route release;
#X msg 10 77 0;
#X obj 10 102 s \$0sustain_pedal;
#X connect 1 0 3 0;
#X connect 2 0 5 0;
#X connect 3 0 4 0;
#X connect 5 0 3 1;
#X connect 7 0 8 0;
#X connect 7 1 9 0;
#X connect 10 0 7 0;
#X connect 11 0 16 0;
#X connect 12 0 15 0;
#X connect 13 0 14 0;
#X connect 14 0 15 0;
#X connect 17 0 69 0;
#X connect 18 0 11 1;
#X connect 19 0 12 0;
#X connect 21 0 30 0;
#X connect 23 0 26 0;
#X connect 23 0 21 0;
#X connect 25 0 29 0;
#X connect 26 0 28 0;
#X connect 27 0 33 0;
#X connect 28 0 27 0;
#X connect 28 0 31 0;
#X connect 29 0 28 1;
#X connect 30 0 22 0;
#X connect 30 1 22 1;
#X connect 31 0 32 0;
#X connect 32 0 24 0;
#X connect 33 0 31 1;
#X connect 35 0 36 0;
#X connect 35 0 47 0;
#X connect 36 0 37 0;
#X connect 36 0 46 0;
#X connect 36 0 39 0;
#X connect 37 0 41 0;
#X connect 38 0 35 1;
#X connect 38 0 50 0;
#X connect 39 0 49 0;
#X connect 40 0 39 1;
#X connect 41 0 36 1;
#X connect 41 0 38 0;
#X connect 42 0 35 0;
#X connect 43 0 42 0;
#X connect 43 1 42 1;
#X connect 44 0 43 0;
#X connect 45 0 44 0;
#X connect 46 0 40 0;
#X connect 49 0 48 0;
#X connect 50 0 51 0;
#X connect 53 0 55 0;
#X connect 54 0 57 0;
#X connect 55 0 58 0;
#X connect 55 0 60 0;
#X connect 57 0 55 1;
#X connect 58 0 63 0;
#X connect 58 0 64 0;
#X connect 58 1 59 0;
#X connect 59 0 60 1;
#X connect 60 0 61 0;
#X connect 61 0 62 0;
#X connect 61 1 62 1;
#X connect 62 0 56 0;
#X connect 63 0 65 0;
#X connect 64 0 66 0;
#X connect 65 0 64 1;
#X connect 66 0 56 0;
#X connect 69 0 70 0;
#X connect 69 1 11 0;
#X connect 70 0 71 0;
#X coords 0 0 1 1 85 60 0;
