#N canvas 861 36 837 1000 12;
#X declare -lib else;
#X obj 68 780 declare -lib else;
#X obj 231 292 osc~;
#X obj 225 410 dac~;
#X obj 286 458 else/scope~ 200 100 8 3 64 -1 1 0 0 0 0 30 30 30 190 190 190 160 160 160 0 empty;
#X obj 231 237 r \$0-note;
#X obj 231 262 mtof;
#N canvas 1710 36 838 1000 note_in 1;
#X obj 317 89 ctlin 64 1;
#X obj 128 333 bendin 1;
#X obj 110 139 else/suspedal -retrig 2 -tonal;
#X obj 110 169 else/mono -high;
#N canvas 1999 36 231 970 mono_msgs 0;
#X obj 82 76 r \$0-portamento;
#X msg 82 121 glide \$1;
#X obj 201 76 r \$0-legato;
#X msg 201 121 legato \$1;
#X obj 82 161 outlet;
#X connect 0 0 1 0;
#X connect 1 0 4 0;
#X connect 2 0 3 0;
#X connect 3 0 4 0;
#X restore 12 139 pd mono_msgs;
#X obj 212 303 s \$0-velocity;
#X obj 110 463 s \$0-note;
#X obj 128 358 expr ($f1/8192 - 1) * $f2;
#X obj 300 333 r \$0-bend_interval;
#N canvas 1923 36 625 1000 defaults 0;
#X obj 39 9 loadbang;
#X obj 39 43 f \$0;
#X obj 10 9 bng 19 250 50 0 empty empty empty 0 -10 0 12 #fcfcfc #000000 #000000;
#X msg 39 68 1 \; \$1-note 0 \; \$1-velocity 0 \; \$1-constant_velocity 1 \; \$1-portamento 0 \; \$1-legato 0 \; \$1-bend_interval 2 \;;
#X connect 0 0 1 0;
#X connect 1 0 3 0;
#X connect 2 0 1 0;
#X restore 13 560 pd defaults;
#X obj 110 413 +;
#X obj 226 278 s \$0-note_off;
#X obj 226 203 != 0;
#X obj 226 228 sel 0 1;
#X obj 249 253 s \$0-note_off;
#X obj 317 114 != 0;
#X obj 110 34 notein 1;
#X obj 128 383 t b f;
#X obj 110 194 stripnote;
#X obj 377 34 r \$0-constant_velocity;
#X obj 163 59 expr if($i2 \, $f1 != 0 \, $f1/127);
#X obj 110 438 change;
#X connect 0 0 15 0;
#X connect 1 0 7 0;
#X connect 2 0 3 0;
#X connect 2 1 3 1;
#X connect 3 0 18 0;
#X connect 3 1 5 0;
#X connect 3 1 12 0;
#X connect 3 1 18 1;
#X connect 4 0 3 0;
#X connect 7 0 17 0;
#X connect 8 0 7 1;
#X connect 10 0 21 0;
#X connect 12 0 13 0;
#X connect 13 0 11 0;
#X connect 13 1 14 0;
#X connect 15 0 2 2;
#X connect 16 0 2 0;
#X connect 16 1 20 0;
#X connect 17 0 10 0;
#X connect 17 1 10 1;
#X connect 18 0 10 0;
#X connect 19 0 20 1;
#X connect 20 0 2 1;
#X connect 21 0 6 0;
#X restore 63 553 pd note_in;
#X obj 333 239 r \$0-velocity;
#X obj 249 355 *~;
#X connect 1 0 8 0;
#X connect 4 0 5 0;
#X connect 5 0 1 0;
#X connect 7 0 8 1;
#X connect 8 0 2 0;
#X connect 8 0 2 1;
#X connect 8 0 3 0;
